<?xml version="1.0" encoding="UTF-8"?>
<svg id="Capa_2" data-name="Capa 2" xmlns="http://www.w3.org/2000/svg" viewBox="0 0 655.63 180.3">
  <defs>
    <style>
      .cls-1 {
        fill-rule: evenodd;
      }
    </style>
  </defs>
  <g id="Capa_1-2" data-name="Capa 1">
    <g>
      <path class="cls-1" d="M34.44,141.68h128.92c2.76,0,5-2.24,5-5v-25.93c0-2.76,2.24-5,5-5h32.52c2.76,0,5-2.24,5-5v-29.22c0-18.92-15.52-34.44-34.22-34.44H47.73c-2.76,0-5,2.24-5,5v25.93c0,2.76-2.24,5-5,5H5c-2.76,0-5,2.24-5,5v29.44c0,18.92,15.52,34.22,34.44,34.22h0ZM161.66,105.75H49.22c-2.76,0-5-2.24-5-5v-22.74c0-2.76,2.24-5,5-5h112.44c2.76,0,5,2.24,5,5v22.74c0,2.76-2.24,5-5,5Z"/>
      <g>
        <path d="M243.08,180.3V35.9h32.53l1.78,11.5c4.76-5.16,9.65-8.73,14.68-10.71,5.02-1.98,10.71-2.97,17.06-2.97,10.05,0,18.45,2.41,25.19,7.24,6.74,4.83,11.83,11.31,15.27,19.44,3.44,8.13,5.16,17.23,5.16,27.27s-1.82,19.57-5.45,27.77c-3.64,8.2-8.99,14.68-16.07,19.44-7.08,4.76-15.7,7.14-25.88,7.14-4.1,0-8.03-.5-11.8-1.49-3.77-.99-7.14-2.28-10.12-3.87-2.97-1.59-5.39-3.3-7.24-5.16v48.79h-35.11ZM300.21,110.08c5.29,0,9.39-1.12,12.3-3.37,2.91-2.25,4.92-5.02,6.05-8.33,1.12-3.3,1.69-6.48,1.69-9.52,0-3.57-.66-7.14-1.98-10.71-1.32-3.57-3.47-6.51-6.45-8.83-2.98-2.31-7.04-3.47-12.2-3.47-4.76,0-8.73,1.09-11.9,3.27s-5.55,4.96-7.14,8.33c-1.59,3.37-2.38,6.91-2.38,10.61s.76,7.04,2.28,10.41c1.52,3.37,3.9,6.15,7.14,8.33,3.24,2.18,7.44,3.27,12.6,3.27Z"/>
        <path d="M359.51,140.43V0h35.11v140.43h-35.11Z"/>
        <path d="M436.47,142.02c-4.89,0-9.52-.66-13.88-1.98-4.36-1.32-8.23-3.3-11.6-5.95-3.37-2.64-6.05-5.95-8.03-9.92s-2.98-8.66-2.98-14.08c0-7.93,1.69-14.15,5.06-18.64,3.37-4.49,7.93-7.8,13.69-9.92,5.75-2.11,12.3-3.47,19.64-4.07,7.34-.6,14.98-.89,22.91-.89h4.76c0-2.51-.6-4.76-1.79-6.74-1.19-1.98-2.88-3.57-5.06-4.76-2.18-1.19-4.86-1.79-8.03-1.79-2.25,0-4.43.33-6.55.99-2.12.66-3.87,1.56-5.26,2.68-1.39,1.12-2.22,2.48-2.48,4.07h-34.91c.79-6.48,2.71-12.07,5.75-16.76,3.04-4.69,6.87-8.53,11.5-11.5,4.63-2.97,9.82-5.19,15.57-6.64,5.75-1.45,11.73-2.18,17.95-2.18,15.34,0,26.94,4.26,34.81,12.79,7.87,8.53,11.8,21.06,11.8,37.59v56.13h-32.33v-13.69c-3.44,5.16-7.31,8.79-11.6,10.91-4.3,2.12-8.2,3.37-11.7,3.77-3.5.4-5.92.59-7.24.59ZM445.99,115.24c3.3,0,6.51-.82,9.62-2.48,3.1-1.65,5.68-3.74,7.74-6.25,2.05-2.51,3.07-5.02,3.07-7.54v-.79h-19.64c-1.59,0-3.11.17-4.56.5-1.46.33-2.75.83-3.87,1.49-1.12.66-2.02,1.52-2.68,2.58-.66,1.06-.99,2.38-.99,3.97,0,1.85.5,3.41,1.49,4.66.99,1.26,2.35,2.22,4.07,2.88,1.72.66,3.63.99,5.75.99Z"/>
        <path d="M507.87,140.43V35.9h35.11v104.53h-35.11Z"/>
        <path d="M551.9,140.43V35.9h32.33l1.98,9.52c3.3-3.44,6.84-5.98,10.61-7.64,3.77-1.65,7.44-2.74,11.01-3.27,3.57-.53,6.61-.79,9.12-.79,9.78,0,17.49,2.25,23.11,6.74,5.62,4.5,9.62,10.45,12,17.85,2.38,7.41,3.57,15.54,3.57,24.4v57.72h-35.11v-54.74c0-2.11-.23-4.33-.69-6.65-.46-2.31-1.26-4.46-2.38-6.45-1.12-1.98-2.68-3.6-4.66-4.86-1.98-1.25-4.56-1.88-7.74-1.88-4.1,0-7.51.93-10.21,2.78-2.71,1.85-4.7,4.33-5.95,7.44-1.26,3.11-1.88,6.58-1.88,10.41v53.95h-35.11Z"/>
      </g>
    </g>
  </g>
</svg>